#N canvas 51 54 1869 1026 10;
#X obj 199 97 netreceive 52522;
#X obj 127 222 == 1;
#X obj 400 211 == 2;
#X obj 79 305 dac~;
#X obj 79 178 adc~;
#X obj 327 294 noteout;
#X obj 333 170 notein;
#X obj 345 242 *;
#X obj 22 29 delay 100;
#X obj 22 -5 loadbang;
#X msg 22 63 \; pd dsp 1;
#X obj 85 264 *~;
#X obj 378 245 print chosen MIDI;
#X obj 142 266 print chosen Audio;
#X text 102 6 <-- Bug workaround to activate dsp;
#X obj 55 222 *~ 1;
#X connect 0 0 1 0;
#X connect 0 0 2 0;
#X connect 1 0 11 1;
#X connect 1 0 13 0;
#X connect 2 0 7 1;
#X connect 2 0 12 0;
#X connect 4 0 15 0;
#X connect 4 1 15 0;
#X connect 6 0 5 0;
#X connect 6 1 7 0;
#X connect 6 2 5 2;
#X connect 7 0 5 1;
#X connect 8 0 10 0;
#X connect 9 0 8 0;
#X connect 11 0 3 0;
#X connect 11 0 3 1;
#X connect 15 0 11 0;
