#N canvas 1012 88 551 835 10;
#X obj 46 684 *~ 0.1;
#X obj 45 262 mtof;
#X obj 45 300 phasor~ 440;
#X obj 201 303 * 20;
#X obj 201 326 + 200;
#X obj 201 446 * 10;
#X obj 45 530 hip~;
#X obj 45 552 hip~;
#X obj 45 574 hip~;
#X obj 45 595 hip~;
#X obj 201 373 lop~ 4;
#X obj 201 513 line;
#X obj 201 468 + 50;
#X msg 201 490 \$1 200;
#X obj 45 404 vcf~ 4;
#X obj 45 202 mono;
#X obj 201 350 sig~ 1000;
#X obj 45 322 *~ 2;
#X obj 45 344 -~ 1;
#X obj 78 641 * 0.1;
#X obj 66 233 s gate;
#X obj 78 619 r gate;
#X obj 45 158 notein;
#X obj 40 759 dac~;
#X floatatom 200 252 5 0 0 0 - - -, f 5;
#X floatatom 201 410 5 0 0 0 - - -, f 5;
#X connect 0 0 23 0;
#X connect 0 0 23 1;
#X connect 1 0 2 0;
#X connect 2 0 17 0;
#X connect 3 0 4 0;
#X connect 4 0 16 0;
#X connect 5 0 12 0;
#X connect 6 0 7 0;
#X connect 7 0 8 0;
#X connect 8 0 9 0;
#X connect 9 0 0 0;
#X connect 10 0 14 1;
#X connect 11 0 6 1;
#X connect 11 0 7 1;
#X connect 11 0 8 1;
#X connect 11 0 9 1;
#X connect 12 0 13 0;
#X connect 13 0 11 0;
#X connect 14 0 6 0;
#X connect 15 0 1 0;
#X connect 15 1 20 0;
#X connect 16 0 10 0;
#X connect 17 0 18 0;
#X connect 18 0 14 0;
#X connect 19 0 0 1;
#X connect 21 0 19 0;
#X connect 22 0 15 0;
#X connect 22 1 15 1;
#X connect 24 0 3 0;
#X connect 25 0 5 0;
